<svg id="SvgjsSvg1051" width="36" height="36" xmlns="http://www.w3.org/2000/svg" version="1.1" xmlns:xlink="http://www.w3.org/1999/xlink" xmlns:svgjs="http://svgjs.com/svgjs"><defs id="SvgjsDefs1052"></defs><g id="SvgjsG1053"><svg xmlns="http://www.w3.org/2000/svg" viewBox="0 0 24 24" width="36" height="36"><path d="M6.977 15.532a2.791 2.791 0 0 0 2.791 2.792 2.859 2.859 0 0 0 2.9-2.757L12.7 3h2.578A4.8 4.8 0 0 0 19.7 7.288v2.995a4.676 4.676 0 0 1-.443.022 4.8 4.8 0 0 1-4.02-2.172v7.4a5.469 5.469 0 1 1-5.469-5.469c.114 0 .226.01.338.017v2.7a2.909 2.909 0 0 0-.338-.034 2.791 2.791 0 0 0-2.791 2.785Z" fill="#ffffff" class="color000 svgShape"></path></svg></g></svg>